<?xml version="1.0" encoding="UTF-8"?>
<svg id="Layer_1" xmlns="http://www.w3.org/2000/svg" version="1.1" viewBox="0 0 231 48">
  <!-- Generator: Adobe Illustrator 30.0.0, SVG Export Plug-In . SVG Version: 2.1.1 Build 123)  -->
  <defs>
    <style>
      .st0 {
        fill: #00b0b9;
      }

      .st1, .st2, .st3 {
        fill: #fff;
      }

      .st2 {
        font-size: 8.94px;
        letter-spacing: .18em;
      }

      .st2, .st4, .st3 {
        isolation: isolate;
      }

      .st2, .st3 {
        font-family: Canaro-Medium, Canaro;
        font-weight: 500;
      }

      .st3 {
        font-size: 19.71px;
      }
    </style>
  </defs>
  <g>
    <polygon class="st0" points="38.28 15.89 28.4 36 23.63 19.72 17.24 18.6 13.86 13.2 19.41 6.81 32.81 6.81 38.28 15.89"/>
    <path class="st1" d="M26.07,0C12.81,0,2.07,10.74,2.07,24s10.74,24,24,24,24-10.74,24-24S39.32,0,26.07,0ZM26.07,39.94c-10.55,0-19.09-8.55-19.09-19.09S15.53,1.74,26.07,1.74s19.09,8.55,19.09,19.09-8.55,19.09-19.09,19.09v.02Z"/>
  </g>
  <g>
    <g class="st4">
      <text class="st3" transform="translate(58.65 24.93)"><tspan x="0" y="0">BANK OF AFRICA</tspan></text>
    </g>
    <g class="st4">
      <text class="st2" transform="translate(105.98 37.18)"><tspan x="0" y="0">BMCE GROUP</tspan></text>
    </g>
  </g>
</svg>