<?xml version="1.0" encoding="UTF-8"?>
<svg id="Layer_1" xmlns="http://www.w3.org/2000/svg" version="1.1" viewBox="0 0 154 32">
  <!-- Generator: Adobe Illustrator 30.0.0, SVG Export Plug-In . SVG Version: 2.1.1 Build 123)  -->
  <defs>
    <style>
      .st0 {
        fill: #00b0b9;
      }

      .st1 {
        font-size: 5.96px;
        letter-spacing: .18em;
      }

      .st1, .st2 {
        font-family: Canaro-SemiBold, Canaro;
        font-weight: 600;
      }

      .st1, .st2, .st3 {
        fill: #231f20;
      }

      .st4 {
        fill: #fff;
      }

      .st2 {
        font-size: 13.14px;
      }
    </style>
  </defs>
  <g>
    <g>
      <polygon class="st0" points="15.21 13.63 11.24 12.93 8.87 9.14 12.67 4.76 21.52 4.76 25.2 10.85 18.44 24.62 15.21 13.63"/>
      <path class="st3" d="M21.31,5.13l3.46,5.74-6.25,12.72-3.02-10.29-4.04-.71-2.14-3.41,3.51-4.04h8.47M21.74,4.38h-9.24l-.22.26-3.51,4.04-.36.42.29.47,2.14,3.41.18.28.33.06,3.58.63,2.88,9.84.54,1.85.85-1.73,6.25-12.72.18-.37-.21-.35-3.46-5.74-.22-.36h0Z"/>
    </g>
    <g>
      <path class="st4" d="M17.05,31.54c-8.57,0-15.54-6.97-15.54-15.54S8.48.46,17.05.46s15.54,6.97,15.54,15.54-6.97,15.54-15.54,15.54ZM17.05,2.31c-6.45,0-11.7,5.25-11.7,11.7s5.25,11.7,11.7,11.7,11.7-5.25,11.7-11.7S23.5,2.31,17.05,2.31Z"/>
      <path class="st3" d="M17.05.83c8.38,0,15.17,6.79,15.17,15.17s-6.79,15.17-15.17,15.17S1.88,24.38,1.88,16,8.67.83,17.05.83M17.05,26.08c6.67,0,12.07-5.4,12.07-12.07S23.72,1.93,17.05,1.93,4.98,7.34,4.98,14.01s5.4,12.07,12.07,12.07M17.05.08C8.27.08,1.13,7.22,1.13,16s7.14,15.92,15.92,15.92,15.92-7.14,15.92-15.92S25.83.08,17.05.08h0ZM17.05,25.33c-6.24,0-11.32-5.08-11.32-11.32S10.81,2.68,17.05,2.68s11.32,5.08,11.32,11.32-5.08,11.32-11.32,11.32h0Z"/>
    </g>
  </g>
  <g>
    <text class="st2" transform="translate(38.78 16.62)"><tspan x="0" y="0">BANK OF AFRICA</tspan></text>
    <text class="st1" transform="translate(70.32 24.79)"><tspan x="0" y="0">BMCE GROUP</tspan></text>
  </g>
</svg>