<?xml version="1.0" encoding="UTF-8"?>
<svg id="Layer_1" xmlns="http://www.w3.org/2000/svg" version="1.1" viewBox="0 0 32 32">
  <!-- Generator: Adobe Illustrator 30.0.0, SVG Export Plug-In . SVG Version: 2.1.1 Build 123)  -->
  <defs>
    <style>
      .st0 {
        fill: #00b0b9;
      }

      .st1 {
        fill: #fff;
      }

      .st2 {
        fill: #1e417a;
      }
    </style>
  </defs>
  <g>
    <polygon class="st0" points="14.25 13.5 10.23 12.79 7.92 9.11 11.65 4.81 20.43 4.81 24.05 10.83 17.42 24.32 14.25 13.5"/>
    <path class="st2" d="M20.29,5.06l3.48,5.77-6.28,12.8-3.03-10.35-4.06-.72-2.15-3.43,3.53-4.07h8.52M20.57,4.56h-9.03l-.15.17-3.53,4.07-.24.28.2.31,2.15,3.43.12.19.22.04,3.76.66,2.95,10.05.36,1.23.57-1.15,6.28-12.8.12-.24-.14-.23-3.48-5.77-.15-.24h0Z"/>
  </g>
  <g>
    <path class="st1" d="M16,31.51C7.45,31.51.49,24.55.49,16S7.45.49,16,.49s15.51,6.96,15.51,15.51-6.96,15.51-15.51,15.51ZM16,2.1c-6.56,0-11.9,5.34-11.9,11.9s5.34,11.9,11.9,11.9,11.9-5.34,11.9-11.9S22.56,2.1,16,2.1Z"/>
    <path class="st2" d="M16,.74c8.43,0,15.26,6.83,15.26,15.26s-6.83,15.26-15.26,15.26S.74,24.43.74,16,7.57.74,16,.74M16,26.14c6.71,0,12.15-5.44,12.15-12.15S22.71,1.85,16,1.85,3.85,7.28,3.85,13.99s5.44,12.15,12.15,12.15M16,.24C7.31.24.24,7.31.24,16s7.07,15.76,15.76,15.76,15.76-7.07,15.76-15.76S24.69.24,16,.24h0ZM16,25.64c-6.42,0-11.65-5.23-11.65-11.65S9.58,2.35,16,2.35s11.65,5.23,11.65,11.65-5.23,11.65-11.65,11.65h0Z"/>
  </g>
</svg>