<?xml version="1.0" encoding="UTF-8"?>
<svg id="Layer_1" xmlns="http://www.w3.org/2000/svg" version="1.1" viewBox="0 0 154 32">
  <!-- Generator: Adobe Illustrator 30.0.0, SVG Export Plug-In . SVG Version: 2.1.1 Build 123)  -->
  <defs>
    <style>
      .st0 {
        fill: #00b0b9;
      }

      .st1 {
        font-size: 5.96px;
        letter-spacing: .18em;
      }

      .st1, .st2, .st3 {
        fill: #fff;
      }

      .st1, .st3 {
        font-family: Canaro-SemiBold, Canaro;
        font-weight: 600;
      }

      .st3 {
        font-size: 13.14px;
      }
    </style>
  </defs>
  <g>
    <polygon class="st0" points="25.61 10.59 19.02 24 15.84 13.15 11.58 12.4 9.33 8.8 13.03 4.54 21.96 4.54 25.61 10.59"/>
    <path class="st2" d="M17.47,0C8.63,0,1.47,7.16,1.47,16s7.16,16,16,16,16-7.16,16-16S26.3,0,17.47,0ZM17.47,26.63c-7.03,0-12.73-5.7-12.73-12.73S10.44,1.16,17.47,1.16s12.73,5.7,12.73,12.73-5.7,12.73-12.73,12.73Z"/>
  </g>
  <g>
    <text class="st3" transform="translate(39.19 16.62)"><tspan x="0" y="0">BANK OF AFRICA</tspan></text>
    <text class="st1" transform="translate(70.74 24.79)"><tspan x="0" y="0">BMCE GROUP</tspan></text>
  </g>
</svg>